<svg width="43" height="42" viewBox="0 0 43 42" fill="none" xmlns="http://www.w3.org/2000/svg">
<mask id="path-1-inside-1_542_4172" fill="white">
<path fill-rule="evenodd" clip-rule="evenodd" d="M43 2C43 0.895431 42.1046 0 41 0H2C0.895431 0 0 0.89543 0 2V28C0 29.1046 0.895431 30 2 30H13C14.1046 30 15 30.8954 15 32L15.0001 39.1716C15.0002 40.9534 17.1545 41.8457 18.4144 40.5858L28.4142 30.5858C28.7893 30.2107 29.298 30 29.8284 30L41 30C42.1046 30 43 29.1046 43 28V2Z"/>
</mask>
<path d="M41 30V26V30ZM29.8284 30V26V30ZM2 4H41V-4H2V4ZM4 28V2H-4V28H4ZM13 26H2V34H13V26ZM19.0001 39.1716L19 31.9999L11 32L11.0001 39.1717L19.0001 39.1716ZM25.5858 27.7574L15.5859 37.7574L21.2428 43.4142L31.2427 33.4142L25.5858 27.7574ZM41 26L29.8284 26V34H41V26ZM39 2V28H47V2H39ZM41 34C44.3137 34 47 31.3137 47 28H39C39 26.8954 39.8954 26 41 26V34ZM31.2427 33.4142C30.8676 33.7893 30.3589 34 29.8284 34V26C28.2371 26 26.711 26.6322 25.5858 27.7574L31.2427 33.4142ZM11.0001 39.1717C11.0002 44.5171 17.4631 47.194 21.2428 43.4142L15.5859 37.7574C16.8458 36.4975 19.0001 37.3898 19.0001 39.1716L11.0001 39.1717ZM13 34C11.8955 34 11 33.1046 11 32L19 31.9999C19 28.6862 16.3137 26 13 26V34ZM-4 28C-4 31.3137 -1.31371 34 2 34V26C3.10457 26 4 26.8954 4 28H-4ZM41 4C39.8954 4 39 3.10457 39 2H47C47 -1.31371 44.3137 -4 41 -4V4ZM2 -4C-1.31371 -4 -4 -1.31371 -4 2H4C4 3.10457 3.10457 4 2 4V-4Z" fill="white" mask="url(#path-1-inside-1_542_4172)"/>
</svg>
