<?xml version="1.0" encoding="UTF-8"?>
<svg id="Layer_1" xmlns="http://www.w3.org/2000/svg" version="1.1" viewBox="0 0 1252 730.2">
  <!-- Generator: Adobe Illustrator 29.3.1, SVG Export Plug-In . SVG Version: 2.1.0 Build 151)  -->
  <defs>
    <style>
      .st0 {
        fill: #33becd;
      }

      .st0, .st1 {
        fill-rule: evenodd;
      }

      .st1 {
        fill: #ff6f1b;
      }
    </style>
  </defs>
  <path class="st0" d="M603.4,57.4l-248.3,632.8h496.7L603.4,57.4ZM631.3,19.1c-10-25.4-45.9-25.4-55.9,0l-263,670.1c-4.8,12.3,60.1,41,68,41h486c21.1,0,35.6-21.3,27.9-41L631.3,19.1Z"/>
  <path class="st0" d="M958.9,57.4l-248.3,632.8h496.7L958.9,57.4ZM986.8,19.1c-10-25.4-45.9-25.4-55.9,0l-263,670.1c-7.7,19.7,6.8,41,27.9,41h526c21.1,0,35.7-21.3,27.9-41L986.8,19.1Z"/>
  <path class="st1" d="M242.1,45.1c-2.2-5.5-7.5-6.7-10.8-5.1-72.8,35.6-130.9,96.1-163.5,170.9-36.4,83.4-38.1,177.7-4.9,262.4,33.2,84.6,98.7,152.6,182.1,189,74.8,32.6,158.5,37.4,236.1,14,3.6-1.1,6.6-5.6,4.5-11.1L242.1,45.1ZM278.7,30.8l243.5,620c9.7,24.8-2.1,54.7-29.7,63-86.4,26.1-179.7,20.8-263.1-15.6-92.9-40.5-165.9-116.3-203-210.6-37-94.3-35.1-199.5,5.4-292.4C68.2,111.8,133,44.5,214.1,4.8c25.9-12.7,54.9,1.2,64.6,26Z"/>
</svg>